<svg width="680" height="420" viewBox="0 0 680 420" fill="none" xmlns="http://www.w3.org/2000/svg">
  <defs>
    <linearGradient id="bg" x1="60" y1="32" x2="620" y2="400" gradientUnits="userSpaceOnUse">
      <stop stop-color="#1F6FEB"/>
      <stop offset="1" stop-color="#0F9D8A"/>
    </linearGradient>
    <linearGradient id="card" x1="180" y1="90" x2="500" y2="330" gradientUnits="userSpaceOnUse">
      <stop stop-color="#FFFFFF" stop-opacity="0.98"/>
      <stop offset="1" stop-color="#E7F1FF" stop-opacity="0.95"/>
    </linearGradient>
  </defs>

  <rect x="16" y="14" width="648" height="392" rx="36" fill="url(#bg)"/>

  <rect x="106" y="72" width="468" height="276" rx="28" fill="#0B1833" fill-opacity="0.22"/>
  <rect x="116" y="84" width="448" height="252" rx="24" fill="url(#card)"/>

  <rect x="148" y="116" width="130" height="14" rx="7" fill="#9DB8D9"/>
  <rect x="148" y="142" width="198" height="10" rx="5" fill="#C7D8EE"/>

  <rect x="148" y="178" width="248" height="62" rx="16" fill="#0F9D8A"/>
  <rect x="416" y="196" width="116" height="44" rx="14" fill="#2563EB"/>

  <rect x="148" y="252" width="122" height="38" rx="12" fill="#FFFFFF"/>
  <rect x="280" y="252" width="122" height="38" rx="12" fill="#E6F0FF"/>
  <rect x="412" y="252" width="120" height="38" rx="12" fill="#D1FAF3"/>

  <circle cx="534" cy="128" r="22" fill="#0F9D8A"/>
  <path d="M525 128h18M534 119v18" stroke="#FFFFFF" stroke-width="3" stroke-linecap="round"/>

  <circle cx="124" cy="310" r="16" fill="#2563EB"/>
  <path d="M118 310h12" stroke="#FFFFFF" stroke-width="2.6" stroke-linecap="round"/>

  <circle cx="574" cy="306" r="14" fill="#0B1833" fill-opacity="0.35"/>
  <path d="M568 306h12" stroke="#FFFFFF" stroke-width="2.2" stroke-linecap="round"/>
</svg>